<?xml version="1.0" standalone="no"?>
<!DOCTYPE svg PUBLIC "-//W3C//DTD SVG 20010904//EN"
 "http://www.w3.org/TR/2001/REC-SVG-20010904/DTD/svg10.dtd">
<svg version="1.0" xmlns="http://www.w3.org/2000/svg"
 width="947.000000pt" height="1280.000000pt" viewBox="0 0 947.000000 1280.000000"
 preserveAspectRatio="xMidYMid meet">
<metadata>
Created by potrace 1.15, written by Peter Selinger 2001-2017
</metadata>
<style>
  .bg  { fill: #ffffff; }
  path { fill: #000000; }
  @media (prefers-color-scheme: dark) {
    .bg  { fill: #000000; }
    path { fill: #ffffff; }
  }
</style>
<rect class="bg" width="947" height="1280"/>
<g transform="translate(0.000000,1280.000000) scale(0.100000,-0.100000)"
stroke="none">
<path d="M4037 12789 c-68 -16 -118 -49 -220 -148 -143 -137 -189 -161 -386
-201 -167 -34 -224 -66 -375 -211 -116 -111 -182 -150 -319 -194 -59 -19 -140
-51 -180 -72 -94 -49 -189 -142 -222 -217 -32 -74 -31 -95 1 -32 61 117 179
192 404 256 211 61 244 80 420 249 120 116 170 141 370 190 149 37 218 73 328
174 48 43 105 88 127 99 99 52 287 65 376 27 37 -16 53 -19 61 -11 26 26 -51
73 -147 91 -68 13 -184 13 -238 0z"/>
<path d="M4634 12776 c-13 -33 6 -36 229 -37 122 0 362 -4 532 -8 356 -9 354
-8 512 -108 157 -99 192 -112 340 -123 270 -21 430 -90 608 -264 52 -51 97
-80 232 -151 221 -116 339 -194 452 -302 211 -198 354 -445 394 -676 6 -41 17
-75 22 -75 24 -3 -10 180 -55 296 -66 171 -176 338 -315 477 -126 126 -245
210 -455 322 -138 73 -178 100 -246 164 -196 184 -363 261 -623 289 -134 14
-171 26 -248 78 -75 51 -105 66 -180 90 -88 29 -115 31 -680 38 -456 5 -514 4
-519 -10z"/>
<path d="M4086 12656 c-55 -21 -92 -60 -132 -144 -31 -65 -41 -76 -79 -93 -24
-11 -64 -22 -90 -26 -71 -9 -39 -26 53 -27 71 -1 82 2 115 27 22 17 50 54 68
90 54 108 93 133 234 153 39 5 45 9 28 15 -45 17 -157 19 -197 5z"/>
<path d="M5225 12589 c50 -5 149 -14 220 -20 242 -20 472 -69 543 -115 12 -8
33 -39 46 -68 42 -94 126 -130 340 -147 72 -5 154 -17 181 -25 120 -37 254
-126 370 -243 33 -34 63 -61 67 -61 46 0 -112 185 -237 278 -131 97 -198 120
-403 137 -193 16 -226 28 -259 94 -31 61 -51 81 -108 106 -115 52 -325 75
-645 73 -181 -1 -194 -2 -115 -9z"/>
<path d="M4442 12563 c-15 -27 -15 -93 -1 -130 26 -69 119 -133 194 -132 l40
0 -25 20 c-134 106 -149 124 -178 209 -17 51 -20 53 -30 33z"/>
<path d="M5145 12371 c45 -22 114 -46 160 -55 44 -9 139 -28 210 -42 171 -33
283 -85 373 -174 34 -35 62 -57 62 -51 0 25 -50 109 -92 152 -116 121 -257
167 -583 189 -82 5 -163 12 -180 15 -18 3 2 -10 50 -34z"/>
<path d="M4000 12351 c0 -18 -86 -50 -190 -72 -159 -33 -201 -51 -259 -114
-77 -85 -100 -186 -77 -340 l9 -60 13 112 c13 114 26 151 71 211 31 41 72 62
203 102 130 40 168 59 208 105 28 31 42 65 27 65 -3 0 -5 -4 -5 -9z"/>
<path d="M4943 12057 c95 -112 167 -297 167 -426 0 -119 -62 -283 -150 -399
-22 -29 -40 -55 -40 -57 0 -13 102 48 146 89 147 131 178 377 75 591 -44 93
-93 155 -164 208 -84 63 -92 62 -34 -6z"/>
<path d="M5617 11903 c25 -146 -13 -368 -88 -519 -101 -205 -336 -323 -738
-373 -46 -6 -86 -13 -88 -15 -9 -9 197 -18 282 -13 309 21 515 138 616 352 90
191 103 413 34 578 -21 50 -28 46 -18 -10z"/>
<path d="M3168 11862 c-46 -48 -82 -106 -103 -168 -14 -40 -17 -81 -16 -219 3
-296 -34 -380 -194 -457 l-60 -28 41 0 c88 0 180 53 231 132 59 95 78 209 61
379 -14 145 -3 225 46 324 19 38 34 71 32 72 -1 2 -18 -14 -38 -35z"/>
<path d="M4391 11808 c-8 -13 -59 -104 -114 -203 -55 -99 -129 -226 -164 -283
-36 -57 -63 -106 -59 -109 12 -12 73 23 125 72 30 27 74 80 98 117 75 115 138
302 131 390 -3 38 -3 38 -17 16z"/>
<path d="M6136 11790 c-3 -8 -10 -41 -16 -74 -26 -128 -95 -281 -172 -375
-114 -142 -309 -250 -586 -327 -91 -25 -59 -39 72 -31 216 14 366 78 508 217
74 73 93 99 132 180 25 52 53 122 61 155 21 81 31 227 17 251 -9 16 -12 16
-16 4z"/>
<path d="M3890 11707 c-27 -186 -72 -297 -168 -420 -26 -33 -55 -70 -66 -84
l-18 -24 28 6 c106 24 215 119 255 223 31 80 38 239 14 317 -10 30 -21 58 -25
60 -4 3 -13 -32 -20 -78z"/>
<path d="M2925 11734 c-108 -47 -160 -61 -295 -85 -174 -30 -181 -34 -102 -62
110 -40 265 -4 394 90 37 27 103 97 86 92 -2 0 -39 -16 -83 -35z"/>
<path d="M7301 11663 c115 -95 206 -199 268 -305 35 -60 67 -108 71 -108 17 0
21 76 6 124 -34 113 -130 211 -280 286 -98 50 -123 51 -65 3z"/>
<path d="M4632 11503 c-32 -30 -302 -340 -302 -347 0 -2 19 0 43 6 100 22 197
107 251 222 24 51 49 137 41 144 -2 2 -17 -9 -33 -25z"/>
<path d="M6647 11488 c-10 -21 -17 -43 -17 -49 0 -7 -16 -41 -37 -77 -50 -91
-151 -189 -238 -231 -173 -85 -250 -103 -540 -126 -229 -19 -285 -25 -285 -35
0 -4 28 -13 63 -20 352 -65 775 46 951 252 48 56 102 163 116 233 15 74 8 102
-13 53z"/>
<path d="M2185 11453 c-99 -57 -209 -166 -252 -248 -17 -33 -49 -113 -72 -177
-56 -160 -89 -230 -159 -339 -114 -180 -174 -327 -201 -489 -7 -42 -9 -216 -7
-483 l5 -418 25 -42 c13 -23 45 -69 70 -102 59 -76 81 -145 64 -195 -7 -21
-12 -91 -12 -175 l0 -140 45 -115 44 -115 1 -181 c1 -222 9 -302 40 -420 24
-93 85 -256 128 -342 l23 -47 -5 -370 c-4 -310 -2 -388 12 -482 30 -200 105
-415 262 -745 118 -248 147 -337 148 -460 l1 -97 35 32 c19 18 40 39 47 47 16
19 16 9 -3 -70 -8 -36 -17 -131 -21 -211 l-6 -147 31 -65 c46 -99 101 -173
202 -272 l92 -90 -82 135 c-130 215 -154 270 -158 365 -2 44 8 183 22 309 34
300 33 353 -4 491 -16 61 -30 127 -30 148 0 20 -4 37 -10 37 -14 0 -13 -16 10
-160 24 -151 25 -210 5 -298 -14 -58 -70 -180 -80 -170 -2 1 2 27 8 57 22 111
-30 286 -192 658 -175 400 -193 474 -212 883 -19 411 -3 854 40 1077 19 102
13 116 -12 26 -32 -117 -86 -454 -87 -543 -1 -51 -68 144 -105 305 -20 85 -27
148 -31 275 -5 137 -11 183 -34 275 -33 128 -46 212 -60 420 -20 294 -10 253
-115 450 l-37 70 8 100 c5 55 9 237 9 405 0 168 4 328 8 355 28 160 64 260
158 425 90 161 120 231 170 404 22 78 57 171 76 208 41 79 127 176 210 238
102 77 100 79 -12 13z"/>
<path d="M6987 11433 c-4 -12 -30 -56 -57 -97 -53 -81 -126 -146 -218 -192
-55 -28 -55 -28 -26 -36 68 -18 160 17 229 88 51 52 88 148 83 216 -2 35 -4
39 -11 21z"/>
<path d="M7288 11345 c-15 -24 -30 -172 -25 -243 7 -107 37 -180 103 -251 73
-79 148 -113 264 -119 47 -2 82 -1 78 3 -4 4 -43 22 -86 39 -214 86 -277 178
-311 446 -9 74 -19 131 -23 125z"/>
<path d="M2130 11168 c-171 -179 -263 -505 -201 -708 22 -71 66 -147 114 -198
35 -37 116 -96 122 -90 3 2 -9 20 -25 40 -17 20 -48 71 -70 114 -112 220 -89
468 76 792 35 67 60 122 58 122 -3 0 -36 -33 -74 -72z"/>
<path d="M4715 11154 c-22 -20 -74 -52 -115 -72 l-75 -37 -150 0 c-121 0 -161
4 -205 19 -30 10 -62 24 -70 31 -27 23 -115 63 -152 70 -53 10 -87 -1 -163
-50 -87 -58 -162 -85 -258 -95 -99 -10 -145 2 -199 50 -55 47 -79 60 -118 60
-51 0 -79 -21 -209 -159 -127 -135 -176 -171 -233 -171 -35 0 -105 38 -176 95
-77 62 -155 57 -233 -15 l-44 -41 56 31 c39 21 69 30 102 30 43 0 50 -4 130
-78 105 -98 148 -114 229 -87 92 30 163 92 277 242 86 112 102 117 179 48 145
-131 338 -122 532 24 30 23 65 44 78 48 42 10 100 -4 160 -41 147 -89 390 -93
556 -9 48 24 156 117 156 134 0 16 -14 9 -55 -27z"/>
<path d="M6402 10936 c-26 -61 -37 -173 -24 -258 30 -208 158 -350 364 -404
67 -17 285 -23 309 -9 8 5 -31 16 -97 27 -248 41 -384 120 -462 266 -47 88
-64 157 -71 287 -6 108 -8 117 -19 91z"/>
<path d="M6812 10783 c4 -79 10 -108 30 -148 48 -93 106 -135 187 -135 53 0
60 15 14 31 -86 28 -177 158 -205 291 -19 90 -31 70 -26 -39z"/>
<path d="M2238 10697 c-46 -38 -71 -109 -76 -222 -5 -121 5 -117 42 15 36 129
67 169 119 156 14 -3 61 -36 104 -72 101 -85 139 -104 205 -104 41 0 62 6 93
27 38 26 36 45 -4 24 -11 -6 -42 -11 -69 -11 -56 0 -94 23 -177 110 -89 93
-182 123 -237 77z"/>
<path d="M4038 10691 c-168 -9 -310 -19 -313 -23 -4 -4 -5 -14 -2 -22 5 -12
53 -13 329 -9 178 2 333 6 346 9 15 3 22 12 22 28 0 25 -18 37 -53 35 -12 -1
-160 -9 -329 -18z"/>
<path d="M8085 10693 c25 -62 66 -193 85 -274 51 -218 63 -342 80 -844 10
-295 23 -410 59 -520 l20 -60 -7 60 c-4 33 -6 244 -4 468 2 268 -1 442 -8 505
-16 131 -62 322 -103 429 -37 96 -114 253 -123 253 -3 0 -3 -8 1 -17z"/>
<path d="M4871 10671 c-8 -5 -11 -16 -7 -26 6 -16 25 -16 234 -10 125 4 231
11 236 15 4 5 5 13 2 19 -9 13 -444 15 -465 2z"/>
<path d="M7306 10574 c14 -63 121 -124 259 -149 286 -51 285 -50 316 -118 14
-32 19 -66 19 -143 0 -110 9 -194 20 -194 20 0 67 296 56 354 -10 52 -58 101
-122 125 -31 12 -114 27 -192 36 -185 21 -239 36 -336 100 l-27 18 7 -29z"/>
<path d="M1787 10390 c-34 -119 -17 -240 49 -372 44 -88 43 -136 -5 -205 -18
-25 -30 -47 -27 -50 9 -9 64 27 91 59 40 47 58 96 51 138 -3 19 -28 80 -56
135 -53 106 -70 178 -70 293 0 34 -4 62 -8 62 -5 0 -16 -27 -25 -60z"/>
<path d="M2445 10342 c-46 -22 -56 -40 -86 -155 -11 -45 -27 -89 -35 -99 -11
-11 -12 -18 -4 -23 6 -4 9 -14 6 -22 -7 -17 -4 -17 88 17 37 13 76 20 105 18
l46 -3 -48 -28 c-57 -34 -102 -99 -111 -160 -4 -23 -2 -74 3 -112 6 -39 15
-166 22 -283 12 -211 12 -213 -9 -234 -23 -23 -72 -27 -182 -14 -58 7 -68 6
-91 -13 -47 -36 -44 -107 7 -166 l25 -30 -4 66 c-3 37 -1 73 4 80 6 10 42 15
126 19 65 3 124 9 131 13 29 19 41 69 53 218 10 141 9 231 -7 410 -8 86 9 123
88 191 l58 51 -26 28 c-15 16 -43 34 -61 40 -39 13 -113 5 -155 -17 -15 -8
-29 -14 -31 -14 -3 0 9 36 26 81 38 98 43 101 185 104 56 1 104 4 107 7 3 3
-7 13 -22 23 -41 27 -157 31 -208 7z"/>
<path d="M4862 10313 c3 -17 24 -18 273 -18 249 0 270 1 273 18 3 16 -15 17
-273 17 -258 0 -276 -1 -273 -17z"/>
<path d="M4190 10305 c-52 -7 -183 -21 -290 -30 -124 -12 -200 -23 -209 -31
-13 -11 -12 -14 2 -20 31 -12 672 69 692 87 13 12 -80 10 -195 -6z"/>
<path d="M6720 10145 c0 -31 42 -114 94 -186 54 -76 147 -157 325 -285 69 -50
141 -110 160 -135 31 -41 33 -47 28 -99 -8 -72 -38 -157 -84 -239 -21 -36 -39
-68 -41 -71 -1 -3 51 -2 116 1 87 4 129 11 164 27 69 30 131 92 164 165 24 53
28 75 29 152 0 89 -28 208 -44 188 -4 -4 -18 -57 -30 -116 -42 -206 -80 -263
-216 -327 -44 -21 -91 -41 -105 -45 -23 -7 -23 -6 9 31 44 50 88 144 102 219
24 131 -32 201 -306 385 -185 124 -306 233 -343 310 -14 28 -22 37 -22 25z"/>
<path d="M7318 10115 c-32 -8 -84 -28 -117 -44 -67 -34 -89 -56 -44 -44 15 4
98 7 183 8 133 0 161 -3 193 -19 45 -22 91 -95 108 -173 7 -29 15 -53 19 -53
15 0 33 92 27 141 -14 120 -97 188 -235 195 -47 2 -99 -2 -134 -11z"/>
<path d="M4698 9683 c-3 -49 -1 -133 3 -187 10 -113 41 -192 90 -228 44 -33
69 -82 90 -183 22 -100 52 -170 76 -179 12 -5 14 -1 9 16 -3 13 -11 66 -16
118 -6 52 -12 109 -15 126 -5 31 -5 31 60 47 36 9 120 39 186 67 179 76 288
101 424 98 l110 -3 -60 -41 c-42 -29 -85 -48 -141 -62 -45 -11 -108 -34 -141
-50 -82 -42 -190 -130 -250 -205 -69 -86 -74 -100 -17 -46 152 144 356 239
513 239 192 0 407 -131 612 -373 l92 -109 106 6 c296 17 303 22 74 51 -78 10
-146 21 -150 24 -5 3 -33 38 -62 76 -148 191 -307 313 -490 376 -30 11 -65 19
-78 19 -37 0 -27 15 40 58 77 50 131 58 283 43 130 -13 232 -40 317 -82 72
-36 208 -128 254 -172 56 -53 45 -24 -17 45 -103 114 -236 200 -385 249 -59
19 -95 23 -225 25 -85 1 -182 -1 -215 -6 -33 -4 -107 -13 -165 -19 -164 -17
-324 -47 -460 -86 -69 -19 -155 -38 -191 -41 -65 -6 -68 -6 -108 26 -58 47
-87 137 -116 355 -16 124 -31 127 -37 8z"/>
<path d="M1661 9710 c-22 -104 -5 -233 40 -307 22 -35 86 -90 95 -81 2 3 -13
55 -35 116 -22 61 -49 157 -60 213 -12 56 -23 104 -25 106 -2 3 -9 -19 -15
-47z"/>
<path d="M1965 9599 c-126 -111 -150 -328 -57 -503 35 -66 138 -169 202 -201
27 -14 50 -23 50 -19 0 3 -34 56 -75 117 -121 183 -162 293 -153 416 5 70 39
154 80 199 34 36 -4 28 -47 -9z"/>
<path d="M4327 9603 c-4 -3 -7 -22 -7 -42 0 -43 -22 -128 -40 -157 -7 -12 -10
-29 -6 -39 6 -17 9 -16 35 9 44 42 61 122 45 205 -6 30 -14 38 -27 24z"/>
<path d="M7985 9496 c-33 -121 -1 -297 68 -382 30 -35 93 -74 123 -74 12 0 6
11 -21 41 -66 74 -112 204 -134 383 -6 49 -12 91 -15 93 -2 2 -11 -25 -21 -61z"/>
<path d="M3380 9340 c-97 -10 -203 -31 -276 -55 -139 -47 -332 -178 -415 -281
-70 -86 -64 -91 18 -14 80 75 220 166 323 209 49 21 74 24 265 29 228 5 350
-8 464 -49 211 -78 316 -95 395 -65 71 27 108 78 130 178 8 36 12 36 -284 43
-135 3 -310 7 -390 9 -80 3 -183 1 -230 -4z m854 -62 c-21 -112 -112 -152
-254 -113 -30 8 -88 24 -129 35 -96 26 -269 47 -456 56 -124 6 -143 9 -110 17
132 30 215 35 577 36 l378 1 -6 -32z"/>
<path d="M4431 9188 c-52 -14 -116 -63 -134 -100 -9 -18 -14 -34 -12 -36 2 -2
21 8 42 21 48 30 150 61 256 78 42 6 77 15 77 19 0 25 -163 38 -229 18z"/>
<path d="M7786 9115 c-32 -255 -63 -381 -127 -511 -36 -74 -138 -204 -159
-204 -4 0 -1 21 7 48 10 30 16 86 16 157 0 115 -17 199 -67 330 -13 33 -27 69
-30 79 -4 10 -9 16 -12 14 -3 -3 10 -68 28 -144 59 -252 44 -380 -67 -575 -29
-52 -52 -95 -51 -96 2 -2 49 22 105 53 142 78 206 145 277 289 29 61 63 148
74 195 24 98 38 335 23 390 -10 35 -10 35 -17 -25z"/>
<path d="M5544 9097 c-78 -17 -219 -84 -292 -141 -92 -70 -185 -176 -156 -176
3 0 43 30 89 67 182 144 319 203 473 203 193 0 360 -82 531 -259 69 -72 70
-68 5 24 -83 118 -213 221 -340 267 -72 26 -220 33 -310 15z"/>
<path d="M2464 9040 c3 -36 9 -103 12 -148 5 -58 11 -85 21 -89 43 -17 47 72
9 192 -36 113 -49 126 -42 45z"/>
<path d="M3328 9086 c-98 -35 -206 -132 -259 -232 -56 -104 -46 -103 70 9 61
59 149 135 194 168 45 34 84 63 86 65 10 9 -57 2 -91 -10z"/>
<path d="M3636 9092 c5 -5 36 -19 69 -32 79 -31 176 -78 198 -98 25 -22 29
-11 9 28 -21 42 -68 75 -135 95 -54 16 -157 21 -141 7z"/>
<path d="M3487 9010 c-121 -21 -283 -134 -356 -249 -43 -66 -39 -71 17 -18 63
62 84 77 173 125 215 118 416 89 628 -89 68 -57 73 -60 119 -57 34 2 47 7 47
18 0 10 -12 16 -35 18 -27 3 -49 17 -95 63 -101 99 -155 133 -266 168 -78 24
-167 32 -232 21z"/>
<path d="M1753 8923 c12 -158 73 -326 148 -408 23 -25 44 -44 46 -41 2 2 -14
44 -36 92 -42 94 -112 300 -133 390 -19 83 -32 66 -25 -33z"/>
<path d="M4126 8960 c-34 -37 -51 -37 -99 -5 -27 19 -37 22 -37 11 0 -22 59
-66 89 -66 30 0 66 28 76 60 10 32 2 32 -29 0z"/>
<path d="M8060 8950 c-31 -11 -39 -16 -20 -12 61 12 153 7 187 -11 100 -53
144 -186 127 -384 l-7 -88 -21 80 c-40 150 -89 205 -183 205 -70 0 -142 -39
-236 -129 -86 -82 -143 -152 -200 -246 -19 -33 -59 -82 -87 -110 -60 -58 -80
-92 -80 -134 0 -45 9 -59 56 -92 75 -51 94 -117 48 -160 -45 -42 -64 -100 -63
-197 l0 -87 19 88 c10 49 29 103 41 121 27 40 86 78 156 100 29 10 67 27 85
39 28 20 33 29 36 69 3 50 -11 87 -55 146 -41 54 -50 26 -18 -54 37 -93 31
-109 -59 -145 -39 -16 -71 -27 -71 -26 -1 1 -7 21 -14 45 -13 46 -61 107 -91
117 -55 18 -27 75 110 227 61 68 143 158 182 201 96 106 166 158 221 164 38 5
48 1 80 -26 92 -81 102 -260 27 -481 -22 -66 -141 -323 -146 -317 -2 2 10 38
27 81 33 84 49 199 30 210 -6 4 -11 0 -11 -11 -1 -60 -86 -276 -200 -503 -44
-88 -77 -160 -73 -160 13 1 116 138 196 260 87 134 155 257 193 353 43 109 38
70 -7 -59 -24 -67 -98 -229 -170 -369 -133 -261 -169 -355 -169 -435 0 -69
-25 -191 -49 -238 -38 -74 -122 -79 -154 -9 -12 26 -43 190 -60 317 -2 17 -7
6 -16 -35 -21 -94 -8 -261 34 -435 75 -311 78 -332 65 -410 -11 -66 -22 -93
-95 -225 -26 -49 -27 -53 -21 -173 3 -68 3 -157 -1 -199 l-6 -76 -88 -93 c-49
-50 -110 -125 -136 -165 l-48 -74 -7 -180 c-8 -226 -27 -302 -95 -394 -23 -29
-23 -32 -5 -22 26 14 73 74 101 128 29 58 58 186 71 317 6 60 16 119 22 130
18 36 83 119 171 220 82 94 86 99 97 166 9 52 9 105 1 211 l-11 141 44 77
c108 184 114 257 43 521 -53 192 -51 183 -28 171 31 -17 83 -13 119 9 62 38
93 116 117 290 17 126 38 180 146 376 160 289 227 462 270 694 33 181 33 406
1 509 -30 96 -91 164 -165 186 -64 19 -89 18 -157 -5z"/>
<path d="M4287 8818 c-88 -238 -109 -471 -54 -591 l24 -52 7 120 c4 66 16 219
27 339 10 121 17 221 15 223 -1 2 -10 -16 -19 -39z"/>
<path d="M4840 8564 c1 -227 2 -237 17 -209 25 45 29 216 9 340 -9 54 -19 101
-21 104 -3 2 -5 -103 -5 -235z"/>
<path d="M5976 8777 c-104 -55 -274 -70 -477 -41 -61 8 -113 13 -115 11 -6 -6
86 -53 139 -71 127 -43 258 -39 368 10 50 23 140 97 128 108 -2 2 -22 -6 -43
-17z"/>
<path d="M2640 8730 c0 -31 197 -46 255 -20 29 14 26 14 -60 21 -134 10 -195
10 -195 -1z"/>
<path d="M2195 8680 c35 -96 55 -222 55 -339 0 -139 -11 -212 -52 -351 -52
-172 -44 -274 38 -482 20 -51 43 -131 51 -178 8 -47 21 -92 29 -100 14 -13 18
-12 40 13 13 15 24 36 24 45 0 11 10 6 38 -20 20 -19 84 -70 141 -113 58 -43
125 -99 149 -124 55 -56 97 -143 107 -216 3 -30 10 -55 14 -55 4 0 22 20 39
45 l32 46 30 -16 c48 -25 158 -203 219 -357 l31 -76 0 -221 c0 -190 2 -221 15
-221 9 0 15 10 15 26 0 49 42 189 93 314 l52 125 7 -140 c7 -150 27 -276 52
-322 13 -25 14 -6 9 202 -9 355 -2 386 131 575 87 124 128 174 235 283 53 53
91 97 86 97 -33 0 -125 -73 -225 -177 -177 -183 -288 -352 -376 -570 l-41
-103 -7 70 c-4 39 -14 94 -22 123 -19 63 -153 324 -200 388 -48 66 -100 81
-145 43 -14 -12 -17 -7 -33 41 -25 81 -94 164 -245 298 -144 126 -149 131
-198 217 -69 118 -115 224 -130 298 -17 81 -16 90 22 292 19 99 19 296 0 402
-15 85 -68 254 -86 273 -6 5 -3 -10 6 -35z"/>
<path d="M3800 8695 c-14 -7 -55 -21 -90 -31 -78 -21 -311 -25 -404 -6 -33 7
-61 10 -64 8 -7 -8 81 -48 148 -67 72 -21 189 -25 259 -8 60 13 139 52 181 88
29 25 32 30 15 30 -11 0 -31 -6 -45 -14z"/>
<path d="M3180 8641 c0 -16 73 -92 104 -108 17 -9 54 -22 81 -29 54 -15 195
-19 195 -6 0 4 -30 16 -67 26 -38 11 -93 30 -123 44 -124 55 -190 80 -190 73z"/>
<path d="M6490 8635 c0 -24 79 -75 117 -75 53 0 40 23 -34 58 -77 37 -83 38
-83 17z"/>
<path d="M2863 8546 c-83 -85 -85 -130 -4 -63 34 27 91 100 91 115 0 26 -27 9
-87 -52z"/>
<path d="M5508 8603 c-23 -6 -23 -16 3 -39 18 -16 37 -19 128 -19 154 0 171
17 39 40 -131 23 -149 25 -170 18z"/>
<path d="M2336 8575 c-10 -27 -7 -88 9 -172 19 -99 19 -142 -1 -237 -8 -41
-14 -88 -12 -103 3 -27 4 -27 27 17 60 112 75 215 47 315 -53 197 -58 210 -70
180z"/>
<path d="M3170 8516 c0 -26 67 -84 104 -92 71 -13 67 13 -9 66 -54 37 -95 48
-95 26z"/>
<path d="M7434 8088 c-25 -75 -28 -97 -28 -233 -1 -162 15 -238 71 -348 30
-60 40 -57 16 4 -16 39 -18 81 -18 346 0 166 -3 304 -7 308 -3 4 -19 -31 -34
-77z"/>
<path d="M7306 7863 c-9 -83 -52 -250 -74 -286 -10 -18 -33 -41 -51 -52 -96
-59 -156 -112 -181 -160 -22 -44 -25 -61 -25 -162 0 -68 4 -116 11 -123 8 -8
13 6 17 52 15 152 61 223 192 296 118 66 158 137 159 287 1 79 -20 205 -34
205 -4 0 -10 -26 -14 -57z"/>
<path d="M4027 7688 c-41 -51 -82 -107 -91 -125 -22 -44 -21 -73 3 -73 14 0
38 35 95 142 42 78 74 143 72 146 -2 2 -38 -38 -79 -90z"/>
<path d="M4245 7742 c-62 -61 -81 -152 -46 -227 18 -39 66 -93 75 -84 3 2 -5
37 -17 76 l-21 72 26 91 c14 50 22 93 18 95 -4 3 -20 -8 -35 -23z"/>
<path d="M5203 7582 c65 -132 61 -239 -12 -276 -55 -29 -271 -48 -337 -30 -22
6 -22 6 7 62 26 49 28 57 15 70 -13 14 -21 11 -69 -20 -101 -67 -185 -98 -268
-98 -20 0 -28 -4 -23 -11 10 -16 122 -3 187 21 l52 20 -35 -31 c-115 -103
-274 -97 -398 16 -50 45 -72 39 -42 -12 11 -20 19 -38 16 -40 -3 -3 -48 0
-101 6 -149 18 -200 49 -229 144 -8 24 -21 21 -34 -8 -16 -35 -15 -53 7 -101
37 -81 191 -124 341 -95 56 11 61 11 97 -13 49 -32 155 -59 209 -53 54 6 141
46 187 86 l36 32 78 -22 c108 -30 259 -31 323 -2 131 60 154 183 60 329 -33
49 -86 104 -103 104 -2 0 14 -35 36 -78z"/>
<path d="M2430 7598 c0 -24 70 -161 115 -224 79 -110 142 -148 281 -169 111
-17 134 -29 175 -93 27 -43 29 -44 29 -19 0 36 -25 95 -53 126 -26 28 -106 65
-162 75 -97 18 -242 128 -340 258 -25 33 -45 54 -45 46z"/>
<path d="M5510 7157 c0 -3 40 -37 89 -76 98 -80 236 -227 286 -305 18 -28 42
-79 55 -113 34 -94 26 -140 -52 -313 -86 -189 -137 -380 -63 -238 19 37 66
117 104 177 98 154 113 186 119 259 l5 63 29 -28 c58 -55 109 -173 139 -318
14 -68 32 -95 64 -95 35 0 45 20 45 90 0 76 22 221 46 300 51 171 183 318 367
406 39 18 65 34 57 34 -21 0 -129 -52 -197 -96 -72 -46 -124 -92 -185 -162
-72 -84 -110 -163 -154 -321 -3 -7 -18 13 -34 46 -29 58 -144 186 -178 198 -9
3 -29 32 -44 63 -58 120 -240 284 -450 406 -27 15 -48 25 -48 23z"/>
<path d="M4185 7080 c-44 -22 -147 -71 -229 -110 -158 -74 -239 -129 -269
-179 -20 -35 -18 -37 21 -17 15 7 74 30 132 51 165 58 281 118 347 179 55 51
104 117 86 115 -4 0 -44 -18 -88 -39z"/>
<path d="M5130 7062 c0 -26 99 -91 257 -169 267 -131 314 -186 337 -390 l12
-108 14 50 c8 28 15 88 15 135 0 70 -4 94 -25 135 -55 113 -162 183 -410 269
-74 26 -149 56 -167 67 -18 11 -33 16 -33 11z"/>
<path d="M4260 6930 c-25 -25 -111 -84 -190 -132 -80 -47 -160 -101 -179 -120
-123 -120 -120 -234 13 -518 34 -74 68 -146 74 -160 10 -22 11 -20 11 25 1 58
-22 145 -78 305 -23 63 -41 130 -41 148 0 93 99 171 290 230 143 44 276 35
362 -25 l38 -26 67 45 c113 74 164 91 273 92 96 1 124 -6 238 -62 54 -26 185
-161 215 -221 34 -70 34 -115 0 -244 -23 -85 -27 -123 -28 -232 0 -128 1 -132
34 -199 26 -54 45 -77 95 -114 93 -71 142 -125 165 -184 21 -51 21 -52 16 -13
-11 70 -42 122 -123 209 -102 108 -117 146 -109 290 4 75 14 133 42 226 29
100 35 137 32 181 -9 107 -81 215 -202 305 -89 65 -175 113 -280 154 -82 33
-195 70 -195 65 0 -2 29 -20 66 -41 l65 -39 -83 -13 c-86 -13 -187 -53 -245
-98 l-33 -25 -63 30 c-66 33 -142 51 -213 51 l-43 0 31 58 c16 33 28 68 26 78
-2 16 -10 12 -48 -26z"/>
<path d="M7092 6893 c-63 -90 -90 -277 -58 -397 11 -40 31 -80 57 -112 75 -94
84 -123 83 -269 -1 -94 -8 -165 -26 -257 -13 -71 -23 -128 -21 -128 8 0 82
162 101 220 65 201 55 350 -30 447 -58 67 -87 137 -98 235 -9 76 -1 216 16
271 8 25 -2 21 -24 -10z"/>
<path d="M2346 6710 c-8 -92 2 -157 33 -218 23 -44 50 -70 113 -106 61 -34 82
-74 74 -135 -19 -129 -18 -140 4 -213 21 -70 148 -343 156 -335 2 2 -5 30 -16
63 -46 133 -93 312 -93 354 0 25 4 77 8 117 4 39 5 83 1 96 -11 43 -58 89
-122 118 -95 43 -118 85 -138 244 l-12 100 -8 -85z"/>
<path d="M4850 6644 c-30 -8 -88 -26 -128 -39 -82 -28 -140 -31 -229 -10 -34
8 -98 17 -142 21 -96 8 -189 -12 -237 -52 l-29 -24 37 15 c52 21 141 19 234
-6 199 -52 231 -59 259 -59 17 0 75 16 130 36 253 91 232 86 334 81 l94 -6
-31 19 c-68 42 -188 52 -292 24z"/>
<path d="M7370 6553 c0 -7 9 -35 20 -62 37 -95 43 -291 11 -421 -15 -65 -65
-213 -100 -300 l-31 -75 61 65 c71 77 150 224 174 324 29 127 17 254 -33 352
-23 45 -101 135 -102 117z"/>
<path d="M5120 6414 c-80 -16 -178 -27 -320 -34 -245 -13 -605 -16 -710 -7
l-75 7 74 -35 c115 -55 220 -68 476 -61 379 10 519 40 670 143 24 16 25 16
-115 -13z"/>
<path d="M3590 6218 c0 -44 30 -148 58 -205 16 -32 58 -115 95 -185 37 -70 67
-136 67 -147 0 -36 -58 -181 -118 -295 -33 -61 -69 -133 -80 -159 l-21 -48 27
20 c111 81 272 305 297 415 24 105 -1 162 -160 375 -66 88 -122 174 -132 202
-19 52 -33 64 -33 27z"/>
<path d="M4525 6227 c-43 -15 -85 -38 -85 -48 0 -3 76 -6 170 -5 110 1 170 5
170 11 0 41 -172 69 -255 42z"/>
<path d="M6783 5993 c23 -107 27 -333 8 -443 -17 -95 -65 -242 -97 -297 -14
-24 -20 -43 -15 -43 18 0 107 94 136 144 90 155 114 364 61 541 -16 52 -86
177 -103 182 -5 2 -1 -36 10 -84z"/>
<path d="M6096 5806 c-26 -40 -37 -109 -26 -165 5 -27 34 -99 64 -160 31 -61
53 -117 50 -125 -3 -8 -54 -45 -112 -83 -59 -37 -127 -88 -152 -113 -77 -77
-107 -170 -77 -240 l15 -35 1 40 c3 91 69 170 204 241 171 90 217 131 217 196
0 53 -19 94 -84 180 -30 41 -62 91 -71 112 -17 39 -22 119 -10 155 9 28 1 27
-19 -3z"/>
<path d="M3306 5573 c12 -59 9 -173 -5 -233 -8 -30 -31 -89 -51 -130 -55 -109
-70 -170 -70 -274 0 -106 17 -196 56 -292 28 -72 52 -109 41 -64 -4 14 -10 86
-13 160 -9 186 5 275 64 410 46 104 47 106 47 215 0 103 -2 114 -32 178 -18
37 -35 67 -38 67 -3 0 -3 -17 1 -37z"/>
<path d="M4561 5422 c-1 -56 -45 -126 -122 -194 -112 -97 -138 -129 -154 -183
-25 -82 1 -162 78 -238 38 -39 167 -117 167 -102 0 4 -25 39 -56 78 -58 74
-96 141 -108 189 -10 41 14 84 93 171 39 43 80 96 92 119 25 48 35 133 21 168
-11 24 -11 24 -11 -8z"/>
<path d="M7114 5248 c-30 -72 -30 -235 0 -407 l25 -143 -19 -39 c-11 -21 -38
-64 -61 -96 -76 -108 -118 -190 -144 -278 -31 -109 -31 -159 0 -260 14 -44 25
-96 25 -116 0 -35 -4 -39 -93 -97 -51 -33 -100 -68 -108 -78 -13 -16 -11 -17
21 -11 50 10 171 71 199 101 35 37 32 93 -9 186 -22 51 -33 91 -34 126 0 55
-3 50 120 224 55 78 151 268 160 317 4 19 -1 70 -9 116 -25 126 -48 319 -49
412 -1 47 -2 85 -4 85 -1 0 -10 -19 -20 -42z"/>
<path d="M2682 5180 c-25 -21 -59 -90 -78 -165 -29 -107 -11 -247 44 -349 15
-27 81 -107 147 -176 132 -140 188 -225 236 -363 16 -45 29 -101 29 -124 0
-60 17 -53 25 10 13 105 -29 261 -100 374 -20 32 -76 99 -124 148 -151 156
-178 201 -201 346 -11 66 -10 88 5 160 9 46 23 99 31 118 17 42 15 45 -14 21z"/>
<path d="M5556 5133 c-8 -63 -31 -129 -90 -258 -46 -101 -54 -141 -36 -175 5
-10 61 -46 124 -80 63 -33 137 -81 165 -106 95 -85 140 -229 128 -409 -4 -49
-11 -106 -16 -125 -10 -33 -9 -34 5 -15 46 58 84 213 84 345 0 181 -109 312
-310 374 -96 30 -130 48 -130 68 0 10 13 44 29 76 44 87 71 186 70 256 -1 87
-14 115 -23 49z"/>
<path d="M6816 5133 c-3 -27 -8 -104 -12 -173 -9 -178 -29 -283 -66 -350 -132
-233 -227 -454 -259 -601 -59 -275 -102 -374 -223 -514 l-51 -59 44 24 c69 39
126 95 180 176 59 87 85 163 100 292 17 137 50 212 220 496 56 93 107 188 114
210 20 66 16 332 -7 444 -10 51 -22 95 -26 97 -5 3 -11 -16 -14 -42z"/>
<path d="M3941 5154 c0 -7 -22 -42 -47 -79 -59 -85 -78 -142 -71 -205 12 -102
50 -145 269 -308 147 -110 225 -185 258 -250 39 -75 27 -287 -25 -431 -8 -24
-14 -46 -12 -48 7 -6 55 70 81 127 49 109 60 280 25 377 -29 77 -154 203 -301
302 -247 167 -279 236 -198 421 17 39 29 79 27 88 -3 9 -5 12 -6 6z"/>
<path d="M1890 4819 c-328 -195 -634 -366 -835 -467 -109 -54 -187 -84 -345
-132 -319 -96 -480 -170 -595 -273 -70 -62 -105 -121 -111 -189 -5 -46 1 -73
49 -208 64 -178 99 -299 156 -525 119 -480 272 -1280 331 -1730 11 -87 25
-176 30 -196 24 -88 117 -182 208 -210 21 -6 164 -15 322 -19 293 -8 428 -18
610 -46 219 -33 266 -47 747 -230 921 -349 1404 -495 1874 -564 499 -75 972 4
1724 285 216 81 425 170 885 377 584 263 808 355 965 394 138 35 575 29 985
-13 215 -21 347 -15 423 21 68 33 101 73 130 158 19 56 21 86 21 278 0 118 -6
294 -12 390 -7 96 -17 243 -22 325 -34 509 -82 991 -103 1030 -39 76 -255 331
-429 507 -197 200 -273 256 -524 394 -204 111 -1004 517 -1009 512 -4 -4 670
-385 969 -548 82 -45 176 -100 210 -122 182 -123 442 -386 649 -656 92 -120
86 -98 117 -467 40 -482 61 -843 67 -1176 5 -299 4 -343 -12 -407 -14 -59 -24
-77 -55 -106 -22 -19 -56 -38 -77 -43 -59 -12 -218 -6 -438 18 -271 29 -708
37 -851 15 -188 -28 -365 -96 -989 -376 -862 -388 -1354 -564 -1795 -644 -437
-79 -722 -61 -1295 84 -382 97 -705 204 -1280 428 -456 177 -461 179 -575 211
-123 35 -224 54 -410 75 -163 19 -469 36 -641 36 -114 0 -130 2 -176 25 -84
42 -101 77 -128 264 -94 632 -279 1517 -425 2021 -22 77 -65 203 -95 280 -30
77 -55 151 -55 166 0 45 47 112 113 161 116 85 342 183 585 254 125 36 261 99
447 206 322 185 993 608 955 602 -3 0 -133 -77 -290 -170z"/>
<path d="M6265 4893 c10 -16 35 -48 55 -73 80 -97 164 -250 155 -280 -3 -10
-37 -67 -76 -126 -125 -192 -180 -326 -178 -432 0 -35 1 -36 10 -12 40 99 96
189 190 309 128 161 164 225 156 278 -12 70 -140 229 -262 323 -61 47 -74 50
-50 13z"/>
<path d="M4805 4788 c7 -73 27 -120 126 -283 99 -165 107 -200 61 -266 -16
-24 -58 -75 -92 -114 -124 -140 -179 -222 -210 -318 -19 -61 9 -158 78 -260
71 -106 85 -141 77 -186 -11 -56 -37 -99 -124 -200 -97 -114 -122 -161 -127
-244 -3 -59 -3 -60 5 -16 15 77 39 114 148 231 129 138 157 188 151 272 -3 50
-12 75 -46 134 -46 81 -72 157 -72 212 0 49 46 139 116 225 100 124 175 227
190 263 36 86 7 153 -149 347 -63 78 -95 133 -119 203 l-19 57 6 -57z"/>
<path d="M2675 4293 c17 -133 53 -242 131 -391 69 -131 77 -155 90 -239 25
-163 53 -207 193 -298 182 -117 606 -353 617 -342 7 7 -315 249 -486 364 -114
78 -180 129 -193 150 -10 17 -27 76 -38 130 -24 123 -31 141 -92 231 -70 105
-143 264 -169 365 -18 70 -26 87 -41 87 -17 0 -18 -6 -12 -57z"/>
<path d="M3475 4062 c0 -107 -14 -149 -72 -215 -51 -57 -90 -132 -99 -193 -10
-68 10 -117 79 -191 65 -69 368 -334 449 -392 26 -18 50 -41 53 -50 4 -9 11
-56 16 -104 14 -135 26 -151 189 -247 276 -164 607 -317 704 -327 143 -14 791
168 914 257 62 44 130 133 218 281 113 191 119 196 306 257 305 98 334 139
418 584 21 117 46 235 54 263 9 27 13 51 11 54 -12 12 -71 -146 -126 -339 -33
-118 -76 -248 -95 -288 -44 -91 -86 -121 -273 -192 -74 -29 -151 -60 -171 -70
-55 -28 -108 -92 -205 -250 -101 -164 -161 -231 -238 -265 -115 -50 -460 -147
-665 -185 -108 -21 -117 -21 -183 -6 -101 23 -403 146 -602 245 -198 100 -212
113 -222 219 -12 122 -19 135 -98 201 -63 52 -249 247 -410 429 -43 48 -47 57
-47 105 0 60 22 113 73 180 41 54 57 101 57 169 0 51 -18 145 -28 152 -4 2 -7
-35 -7 -82z"/>
<path d="M5116 4030 c-50 -94 -76 -174 -76 -229 0 -63 34 -131 141 -282 151
-215 174 -286 124 -386 -28 -55 -66 -94 -223 -221 -103 -85 -182 -182 -182
-225 0 -16 7 -9 28 24 29 45 44 56 267 202 166 108 230 195 229 312 -1 99 -42
176 -199 365 -124 150 -139 178 -132 248 6 69 34 187 54 225 8 16 13 31 10 33
-2 3 -21 -27 -41 -66z"/>
<path d="M3942 3623 c-33 -52 -37 -65 -37 -124 0 -60 4 -71 39 -124 21 -32 87
-109 147 -171 60 -62 109 -115 109 -119 0 -3 -5 -37 -11 -75 -14 -93 -2 -136
55 -188 35 -32 122 -82 143 -82 3 0 -21 20 -53 43 -112 83 -122 107 -98 228
16 75 16 90 4 120 -8 19 -73 92 -146 164 -178 177 -191 213 -123 348 29 55 14
45 -29 -20z"/>
<path d="M1086 3651 l-29 -6 24 -12 c13 -7 44 -17 69 -23 76 -19 485 -129 660
-177 198 -55 403 -118 484 -150 33 -12 61 -21 63 -19 2 2 -30 26 -72 54 -152
103 -381 195 -660 267 -180 46 -468 82 -539 66z"/>
<path d="M5777 3410 l6 -100 -55 -72 c-88 -115 -198 -302 -185 -314 6 -7 183
180 257 271 60 75 64 83 64 130 -1 34 -10 67 -27 100 -28 53 -51 85 -60 85 -3
0 -3 -45 0 -100z"/>
<path d="M8069 3315 c-3 -2 -52 -11 -110 -19 -117 -17 -334 -75 -514 -136
-225 -78 -657 -261 -887 -376 -186 -93 -181 -92 437 136 290 106 514 187 957
344 100 36 146 56 126 56 -2 0 -7 -2 -9 -5z"/>
<path d="M4906 1247 c-32 -151 -44 -247 -35 -297 l6 -35 25 55 c30 66 44 122
53 213 8 69 -1 197 -13 197 -4 0 -20 -60 -36 -133z"/>
</g>
</svg>
